<?xml version="1.0" standalone="no"?>
<!DOCTYPE svg PUBLIC "-//W3C//DTD SVG 20010904//EN"
 "http://www.w3.org/TR/2001/REC-SVG-20010904/DTD/svg10.dtd">
<svg version="1.0" xmlns="http://www.w3.org/2000/svg"
 width="1000.000000pt" height="1000.000000pt" viewBox="0 0 1000.000000 1000.000000"
 preserveAspectRatio="xMidYMid meet">
<metadata>
Created by potrace 1.14, written by Peter Selinger 2001-2017
</metadata>
<g transform="translate(0.000000,1000.000000) scale(0.100000,-0.100000)"
fill="#000000" stroke="none">
<path d="M3470 7679 c0 -12 13 -18 51 -23 81 -11 125 -34 181 -95 56 -60 132
-197 211 -381 40 -93 1377 -3496 1377 -3505 0 -2 9 -24 20 -50 l20 -47 68 62
c118 109 310 221 454 266 l58 18 -33 19 c-44 26 -103 83 -138 134 -16 23 -165
386 -333 815 -167 425 -432 1099 -589 1498 -157 399 -292 750 -301 780 -18 61
-22 197 -7 248 38 128 138 208 293 234 42 8 68 17 68 25 0 10 -138 13 -700 15
-640 3 -700 2 -700 -13z"/>
<path d="M6110 7679 c0 -13 15 -18 70 -23 157 -16 274 -64 358 -148 152 -151
187 -410 107 -772 -14 -60 -23 -111 -22 -113 2 -1 27 50 56 115 136 300 301
570 435 710 120 125 222 188 334 207 30 5 42 11 40 21 -3 12 -105 15 -691 17
-628 2 -687 1 -687 -14z"/>
<path d="M2510 6366 c0 -10 17 -16 53 -21 110 -14 182 -67 255 -188 93 -154
106 -186 1107 -2742 245 -627 448 -1141 449 -1143 2 -2 21 13 42 33 120 113
279 212 434 271 l100 37 -38 25 c-55 36 -99 81 -132 132 -15 25 -227 551 -470
1170 -243 619 -511 1301 -595 1515 -97 245 -158 416 -166 459 -40 235 82 398
324 432 30 4 47 11 47 20 0 12 -111 14 -705 14 -599 0 -705 -2 -705 -14z"/>
<path d="M5150 6366 c0 -10 19 -16 68 -21 282 -28 444 -158 498 -403 24 -107
15 -335 -20 -497 -14 -66 -26 -124 -26 -130 0 -5 29 52 64 127 170 364 303
576 458 729 96 96 196 152 311 174 15 3 27 12 27 20 0 13 -87 15 -690 15 -589
0 -690 -2 -690 -14z"/>
</g>
</svg>
